<svg width="442" height="59" viewBox="0 0 442 59" fill="none" xmlns="http://www.w3.org/2000/svg">
<g filter="url(#filter0_ii_5_110)">
<path d="M18.4141 47.1016L29.7422 1.125H35.875L36.2656 10.8125L24.1562 58H17.6719L18.4141 47.1016ZM11.2656 1.125L20.5625 46.9453V58H13.4922L0.601562 1.125H11.2656ZM48.0234 46.75L57.1641 1.125H67.8672L54.9766 58H47.9062L48.0234 46.75ZM38.8047 1.125L50.1328 47.2578L50.7969 58H44.3125L32.2422 10.7734L32.7109 1.125H38.8047ZM108.363 9.75781L92.1516 58H80.7844L102.034 1.125H109.3L108.363 9.75781ZM121.917 58L105.628 9.75781L104.652 1.125H111.956L133.323 58H121.917ZM121.175 36.8672V45.3438H90.6672V36.8672H121.175ZM171.475 1.125V58H160.772V1.125H171.475ZM189.131 1.125V9.60156H143.311V1.125H189.131ZM241.267 39.2891H252.009C251.723 43.0911 250.668 46.4635 248.845 49.4062C247.022 52.3229 244.483 54.6146 241.228 56.2812C237.973 57.9479 234.028 58.7812 229.392 58.7812C225.824 58.7812 222.608 58.1562 219.744 56.9062C216.905 55.6302 214.47 53.8203 212.439 51.4766C210.434 49.1068 208.897 46.2682 207.83 42.9609C206.762 39.6276 206.228 35.8906 206.228 31.75V27.4141C206.228 23.2734 206.775 19.5365 207.869 16.2031C208.962 12.8698 210.525 10.0312 212.556 7.6875C214.614 5.31771 217.074 3.49479 219.939 2.21875C222.83 0.942708 226.059 0.304688 229.627 0.304688C234.262 0.304688 238.181 1.16406 241.384 2.88281C244.587 4.57552 247.074 6.90625 248.845 9.875C250.616 12.8438 251.684 16.2552 252.048 20.1094H241.306C241.098 17.7135 240.577 15.6823 239.744 14.0156C238.936 12.349 237.712 11.0859 236.072 10.2266C234.457 9.34115 232.309 8.89844 229.627 8.89844C227.543 8.89844 225.707 9.28906 224.119 10.0703C222.556 10.8516 221.254 12.0234 220.212 13.5859C219.171 15.1224 218.39 17.0495 217.869 19.3672C217.348 21.6589 217.087 24.3151 217.087 27.3359V31.75C217.087 34.6406 217.322 37.2318 217.791 39.5234C218.259 41.8151 218.989 43.7552 219.978 45.3438C220.968 46.9323 222.244 48.1432 223.806 48.9766C225.369 49.8099 227.231 50.2266 229.392 50.2266C232.022 50.2266 234.158 49.8099 235.798 48.9766C237.465 48.1432 238.728 46.9193 239.587 45.3047C240.473 43.6901 241.033 41.6849 241.267 39.2891ZM310.864 24.6016V33.0391H280.942V24.6016H310.864ZM283.872 1.125V58H273.13V1.125H283.872ZM318.833 1.125V58H308.091V1.125H318.833ZM380.266 49.5625V58H350.031V49.5625H380.266ZM353.312 1.125V58H342.57V1.125H353.312ZM376.32 24.6016V32.8438H350.031V24.6016H376.32ZM380.148 1.125V9.60156H350.031V1.125H380.148ZM430.292 43.2344C430.292 42.1406 430.123 41.1641 429.784 40.3047C429.472 39.4193 428.886 38.625 428.027 37.9219C427.193 37.1927 426.008 36.4896 424.472 35.8125C422.961 35.1094 421.008 34.3802 418.612 33.625C415.956 32.7917 413.482 31.8542 411.191 30.8125C408.899 29.7708 406.881 28.5599 405.136 27.1797C403.417 25.7995 402.076 24.2109 401.112 22.4141C400.149 20.5911 399.667 18.4818 399.667 16.0859C399.667 13.7422 400.162 11.6068 401.152 9.67969C402.167 7.7526 403.599 6.09896 405.448 4.71875C407.297 3.3125 409.472 2.23177 411.972 1.47656C414.498 0.721354 417.284 0.34375 420.331 0.34375C424.55 0.34375 428.196 1.11198 431.269 2.64844C434.368 4.1849 436.764 6.26823 438.456 8.89844C440.149 11.5286 440.995 14.4844 440.995 17.7656H430.292C430.292 15.9948 429.915 14.4323 429.159 13.0781C428.43 11.724 427.31 10.6562 425.8 9.875C424.316 9.09375 422.441 8.70312 420.175 8.70312C417.987 8.70312 416.165 9.02865 414.706 9.67969C413.274 10.3307 412.193 11.2161 411.464 12.3359C410.761 13.4557 410.409 14.7057 410.409 16.0859C410.409 17.1276 410.657 18.0651 411.152 18.8984C411.646 19.7057 412.389 20.474 413.378 21.2031C414.368 21.9062 415.592 22.5703 417.05 23.1953C418.534 23.7943 420.253 24.3932 422.206 24.9922C425.331 25.9297 428.066 26.9714 430.409 28.1172C432.779 29.263 434.745 30.5651 436.308 32.0234C437.896 33.4818 439.081 35.1224 439.862 36.9453C440.67 38.7682 441.073 40.8385 441.073 43.1562C441.073 45.6042 440.592 47.7917 439.628 49.7188C438.665 51.6458 437.284 53.2865 435.487 54.6406C433.691 55.9948 431.529 57.0234 429.003 57.7266C426.503 58.4297 423.704 58.7812 420.605 58.7812C417.844 58.7812 415.11 58.4167 412.402 57.6875C409.719 56.9323 407.284 55.8125 405.097 54.3281C402.909 52.8177 401.165 50.9167 399.862 48.625C398.56 46.3073 397.909 43.599 397.909 40.5H408.691C408.691 42.2969 408.977 43.8333 409.55 45.1094C410.149 46.3594 410.982 47.388 412.05 48.1953C413.144 48.9766 414.42 49.5495 415.878 49.9141C417.336 50.2786 418.912 50.4609 420.605 50.4609C422.792 50.4609 424.589 50.1615 425.995 49.5625C427.428 48.9375 428.495 48.0781 429.198 46.9844C429.928 45.8906 430.292 44.6406 430.292 43.2344Z" fill="white"/>
</g>
<defs>
<filter id="filter0_ii_5_110" x="0.601562" y="0.304688" width="440.472" height="62.4766" filterUnits="userSpaceOnUse" color-interpolation-filters="sRGB">
<feFlood flood-opacity="0" result="BackgroundImageFix"/>
<feBlend mode="normal" in="SourceGraphic" in2="BackgroundImageFix" result="shape"/>
<feColorMatrix in="SourceAlpha" type="matrix" values="0 0 0 0 0 0 0 0 0 0 0 0 0 0 0 0 0 0 127 0" result="hardAlpha"/>
<feOffset dy="4"/>
<feGaussianBlur stdDeviation="2"/>
<feComposite in2="hardAlpha" operator="arithmetic" k2="-1" k3="1"/>
<feColorMatrix type="matrix" values="0 0 0 0 0 0 0 0 0 0 0 0 0 0 0 0 0 0 0.25 0"/>
<feBlend mode="normal" in2="shape" result="effect1_innerShadow_5_110"/>
<feColorMatrix in="SourceAlpha" type="matrix" values="0 0 0 0 0 0 0 0 0 0 0 0 0 0 0 0 0 0 127 0" result="hardAlpha"/>
<feOffset dy="4"/>
<feGaussianBlur stdDeviation="2"/>
<feComposite in2="hardAlpha" operator="arithmetic" k2="-1" k3="1"/>
<feColorMatrix type="matrix" values="0 0 0 0 0 0 0 0 0 0 0 0 0 0 0 0 0 0 0.25 0"/>
<feBlend mode="normal" in2="effect1_innerShadow_5_110" result="effect2_innerShadow_5_110"/>
</filter>
</defs>
</svg>
